# xmcd CD database file
#
# Track frame offsets:
#	188
#	15185
#	29785
#	42868
#	56105
#	68685
#	81325
#	93115
#	105820
#	120698
#	130995
#	143505
#	155435
#	168195
#	182100
#	196658
#	210008
#	222633
#	234253
#	247405
#	260560
#	274930
#	287795
#	302615
#
# Disc length: 4201 seconds
#
# Revision: 0
# Processed by: cddbd v1.4PL0 Copyright (c) Steve Scherf et al.
# Submitted via: CDex 1.50
#
DISCID=4d106718
DTITLE=Charlie Shavers and the Blues Singers - 1938 - 1939
DYEAR=1995
DGENRE=Blues
TTITLE0=Freight Train Blues
TTITLE1=Trixie Blues
TTITLE2=My Dady Rocks Me - Part 1
TTITLE3=My Dady Rocks Me - Part 2
TTITLE4=He May Be Your Man, But He Comes To See Me Sometimes
TTITLE5=Jack, I'm Mellow
TTITLE6=Uncle Joe
TTITLE7=I Am A Woman
TTITLE8=Toot It, Brother Armstrong
TTITLE9=Blue Monday On Sugar Hill
TTITLE10=My Unusual Man
TTITLE11=Do Your Duty
TTITLE12=Low Down Dirty Groundhog
TTITLE13=Come Easy Go Easy
TTITLE14=My Blues Is Like Whiskey
TTITLE15=The Jive Is Here
TTITLE16=My Downfall
TTITLE17=Hog Wild Blues
TTITLE18=Chirpin' The Blues
TTITLE19=Down Hearted Blues
TTITLE20=I'll See You Go
TTITLE21=Fine and Mellow
TTITLE22=Yelping The Blues
TTITLE23=Someday Sweetheart
EXTD=YEAR: 1995
EXTT0=
EXTT1=
EXTT2=
EXTT3=
EXTT4=
EXTT5=
EXTT6=
EXTT7=
EXTT8=
EXTT9=
EXTT10=
EXTT11=
EXTT12=
EXTT13=
EXTT14=
EXTT15=
EXTT16=
EXTT17=
EXTT18=
EXTT19=
EXTT20=
EXTT21=
EXTT22=
EXTT23=
PLAYORDER=
